<svg aria-hidden="true" style="position: absolute; width: 0; height: 0; overflow: hidden;" version="1.1" xmlns="http://www.w3.org/2000/svg" xmlns:xlink="http://www.w3.org/1999/xlink">
<defs>
<symbol id="icon-up-arrow-2_icon-iconscom_62899" viewBox="0 0 32 32">
<path fill="#f0d5ad" style="fill: var(--color1, #f0d5ad)" d="M32 16.855c0 8.094-6.562 14.656-14.657 14.656s-14.656-6.562-14.656-14.657c0-8.095 6.562-14.656 14.656-14.656s14.657 6.562 14.657 14.656z"></path>
<path fill="#000" style="fill: var(--color2, #000)" d="M15.389 31.267c-8.486 0-15.389-6.904-15.389-15.389s6.904-15.389 15.389-15.389 15.389 6.904 15.389 15.389-6.904 15.389-15.389 15.389zM15.389 1.954c-7.678 0-13.924 6.246-13.924 13.924s6.246 13.924 13.924 13.924 13.924-6.246 13.924-13.924-6.246-13.924-13.924-13.924z"></path>
<path d="M14.208 19.412l3.056-5.442 3.056 5.44c0.218 0.571-0.204 1.158-0.815 1.158h-4.481c-0.611 0-1.034-0.584-0.815-1.156z"></path>
<path fill="#000" style="fill: var(--color2, #000)" d="M17.551 20.079h-4.481c-0.563 0-1.071-0.25-1.359-0.668-0.27-0.392-0.321-0.887-0.141-1.36 0.013-0.035 0.029-0.068 0.048-0.101l3.056-5.35c0.13-0.229 0.373-0.339 0.636-0.339h0.001c0.263 0 0.506 0.108 0.636 0.337l3.057 5.333c0.019 0.033 0.035 0.059 0.048 0.095 0.182 0.478 0.128 0.979-0.149 1.381-0.292 0.423-0.797 0.672-1.351 0.672zM12.941 18.586c0.014 0.012 0.059 0.027 0.128 0.027h4.481c0.084 0 0.128-0.026 0.141-0.038l-2.379-4.164-2.371 4.175z"></path>
</symbol>
<symbol id="icon-magnifier_icon-iconscom_67839" viewBox="0 0 32 32">
<path fill="#000" style="fill: var(--color1, #000)" d="M16.469 17.308v0 0c-0.016 0.021-0.034 0.042-0.051 0.062l-11.922 13.412c-0.438 0.493-1.171 0.515-1.637 0.049l-1.69-1.69c-0.466-0.466-0.445-1.198 0.049-1.637l13.412-11.922c0.020-0.018 0.041-0.035 0.062-0.051-2.875-3.745-2.598-9.133 0.831-12.562 3.73-3.73 9.779-3.73 13.509 0s3.73 9.779 0 13.509c-3.429 3.429-8.817 3.706-12.562 0.831zM16.367 15.633c3.264 3.264 8.556 3.264 11.82 0s3.264-8.556 0-11.82c-3.264-3.264-8.556-3.264-11.82 0s-3.264 8.556 0 11.82v0 0zM2.858 29.142c0.466 0.466 1.222 0.466 1.689 0s0.466-1.222 0-1.689c-0.466-0.466-1.222-0.466-1.689 0s-0.466 1.222 0 1.689v0 0z"></path>
<path fill="#fbf0b8" style="fill: var(--color2, #fbf0b8)" d="M16.469 17.308v0 0c-0.016 0.021-0.034 0.042-0.051 0.062l-11.922 13.412c-0.438 0.493-1.171 0.515-1.637 0.049l-1.69-1.69c-0.466-0.466-0.445-1.198 0.049-1.637l13.412-11.922c0.020-0.018 0.041-0.035 0.062-0.051-2.875-3.745-2.598-9.133 0.831-12.562 3.73-3.73 9.779-3.73 13.509 0s3.73 9.779 0 13.509c-3.429 3.429-8.817 3.706-12.562 0.831zM16.367 15.633c3.264 3.264 8.556 3.264 11.82 0s3.264-8.556 0-11.82c-3.264-3.264-8.556-3.264-11.82 0s-3.264 8.556 0 11.82v0 0zM2.858 29.142c0.466 0.466 1.222 0.466 1.689 0s0.466-1.222 0-1.689c-0.466-0.466-1.222-0.466-1.689 0s-0.466 1.222 0 1.689v0 0z"></path>
<path fill="#000" style="fill: var(--color1, #000)" d="M26.497 13.946c0.266 0.263 0.547 0.545 0.845 0.843-2.798 2.798-7.334 2.798-10.132 0 0.299-0.299 0.58-0.58 0.845-0.843 2.331 2.33 6.11 2.33 8.441 0v0z"></path>
<path fill="#697f9b" style="fill: var(--color3, #697f9b)" d="M26.497 13.946c0.266 0.263 0.547 0.545 0.845 0.843-2.798 2.798-7.334 2.798-10.132 0 0.299-0.299 0.58-0.58 0.845-0.843 2.331 2.33 6.11 2.33 8.441 0v0z"></path>
</symbol>
</defs>
</svg>
